# xmcd
#
# Track frame offsets:
#	150
#	13152
#	33655
#	51515
#	66262
#	78540
#	103887
#	122602
#	137537
#	160570
#	187202
#	201425
#
# Disc length: 2904 seconds
#
# Revision: 0
# Processed by: cddbd v1.4PL0 Copyright (c) Steve Scherf et al.
# Submitted via: dBpowerAMP V4.0
#
DISCID=b10b560c
DTITLE=Alf Robertsson - Mitt Land
DYEAR=1900
DGENRE=Country
TTITLE0=Alf Robertsson - Kasta Inga Stenar
TTITLE1=Alf Robertsson - Vi Ses Nog När Jag Dör
TTITLE2=Alf Robertsson - Snålhet Är Värre Än Brännvin
TTITLE3=Alf Robertsson - Det Spelar Ingen Roll
TTITLE4=Alf Robertsson - Sånger Om Frihet Är Bara Sånger
TTITLE5=Alf Robertsson - Olles Bar and Grill
TTITLE6=Alf Robertsson - Hundar, Ungar Och Hembryggt Äppelvin
TTITLE7=Alf Robertsson - Det Är För Många Som Snackar
TTITLE8=Alf Robertsson - Åtta Dyggn I Kolet
TTITLE9=Alf Robertsson - Med Vinden Kom En Sång
TTITLE10=Alf Robertsson - Drömmar Jag Drömt Med Dig
TTITLE11=Alf Robertsson - Mitt Land
EXTD=
EXTT0=
EXTT1=
EXTT2=
EXTT3=
EXTT4=
EXTT5=
EXTT6=
EXTT7=
EXTT8=
EXTT9=
EXTT10=
EXTT11=
PLAYORDER=
